<mxGraphModel dx="1215" dy="1298" grid="1" gridSize="10" guides="1" tooltips="1" connect="1" arrows="1" fold="1" page="1" pageScale="1" pageWidth="1500" pageHeight="1000" math="0" shadow="0">
  <root>
    <mxCell id="0" />
    <mxCell id="1" parent="0" />
    <mxCell id="app1" value="pymongo-api" style="rounded=1;whiteSpace=wrap;html=1;fillColor=#dae8fc;strokeColor=#6c8ebf;fontSize=14;fontStyle=1;" parent="1" vertex="1">
      <mxGeometry x="640" y="80" width="140" height="70" as="geometry" />
    </mxCell>
    <mxCell id="router1" value="mongos-r1" style="rounded=1;whiteSpace=wrap;html=1;fillColor=#e1d5e7;strokeColor=#9673a6;fontSize=12;fontStyle=1;" parent="1" vertex="1">
      <mxGeometry x="430" y="250" width="120" height="60" as="geometry" />
    </mxCell>
    <mxCell id="router2" value="mongos-r2" style="rounded=1;whiteSpace=wrap;html=1;fillColor=#e1d5e7;strokeColor=#9673a6;fontSize=12;fontStyle=1;" parent="1" vertex="1">
      <mxGeometry x="650" y="250" width="120" height="60" as="geometry" />
    </mxCell>
    <mxCell id="router3" value="mongos-r3" style="rounded=1;whiteSpace=wrap;html=1;fillColor=#e1d5e7;strokeColor=#9673a6;fontSize=12;fontStyle=1;" parent="1" vertex="1">
      <mxGeometry x="830" y="250" width="120" height="60" as="geometry" />
    </mxCell>
    <mxCell id="config_group" value="Config Servers" style="rounded=1;whiteSpace=wrap;html=1;fillColor=#f8cecc;strokeColor=#b85450;fontSize=12;fontStyle=1;dashed=1;" parent="1" vertex="1">
      <mxGeometry x="100" y="730" width="200" height="40" as="geometry" />
    </mxCell>
    <mxCell id="config1" value="configSrv-1" style="shape=cylinder3;whiteSpace=wrap;html=1;boundedLbl=1;backgroundOutline=1;size=15;fillColor=#f8cecc;strokeColor=#b85450;fontSize=11;" parent="1" vertex="1">
      <mxGeometry x="120" y="550" width="80" height="70" as="geometry" />
    </mxCell>
    <mxCell id="config2" value="configSrv-2" style="shape=cylinder3;whiteSpace=wrap;html=1;boundedLbl=1;backgroundOutline=1;size=15;fillColor=#f8cecc;strokeColor=#b85450;fontSize=11;" parent="1" vertex="1">
      <mxGeometry x="220" y="550" width="80" height="70" as="geometry" />
    </mxCell>
    <mxCell id="config3" value="configSrv-3" style="shape=cylinder3;whiteSpace=wrap;html=1;boundedLbl=1;backgroundOutline=1;size=15;fillColor=#f8cecc;strokeColor=#b85450;fontSize=11;" parent="1" vertex="1">
      <mxGeometry x="170" y="650" width="80" height="70" as="geometry" />
    </mxCell>
    <mxCell id="shard_group" value="Data Shards" style="rounded=1;whiteSpace=wrap;html=1;fillColor=#d5e8d4;strokeColor=#82b366;fontSize=12;fontStyle=1;dashed=1;" parent="1" vertex="1">
      <mxGeometry x="1000" y="440" width="200" height="40" as="geometry" />
    </mxCell>
    <mxCell id="shard1" value="shard1&#xa;(user_id: 0-50%)" style="shape=cylinder3;whiteSpace=wrap;html=1;boundedLbl=1;backgroundOutline=1;size=15;fillColor=#d5e8d4;strokeColor=#82b366;fontSize=11;" parent="1" vertex="1">
      <mxGeometry x="1050" y="540" width="100" height="80" as="geometry" />
    </mxCell>
    <mxCell id="shard2" value="shard2&#xa;(user_id: 50-100%)" style="shape=cylinder3;whiteSpace=wrap;html=1;boundedLbl=1;backgroundOutline=1;size=15;fillColor=#d5e8d4;strokeColor=#82b366;fontSize=11;" parent="1" vertex="1">
      <mxGeometry x="1050" y="640" width="100" height="80" as="geometry" />
    </mxCell>
    <mxCell id="conn1" style="edgeStyle=orthogonalEdgeStyle;rounded=0;orthogonalLoop=1;jettySize=auto;html=1;strokeWidth=3;strokeColor=#0066cc;entryX=0.5;entryY=0;entryDx=0;entryDy=0;exitX=0.25;exitY=1;exitDx=0;exitDy=0;" parent="1" source="app1" target="router1" edge="1">
      <mxGeometry relative="1" as="geometry">
        <Array as="points">
          <mxPoint x="675" y="200" />
          <mxPoint x="490" y="200" />
        </Array>
      </mxGeometry>
    </mxCell>
    <mxCell id="conn2" style="edgeStyle=orthogonalEdgeStyle;rounded=0;orthogonalLoop=1;jettySize=auto;html=1;strokeWidth=3;strokeColor=#0066cc;entryX=0.5;entryY=0;entryDx=0;entryDy=0;exitX=0.5;exitY=1;exitDx=0;exitDy=0;" parent="1" source="app1" target="router2" edge="1">
      <mxGeometry relative="1" as="geometry" />
    </mxCell>
    <mxCell id="conn3" style="edgeStyle=orthogonalEdgeStyle;rounded=0;orthogonalLoop=1;jettySize=auto;html=1;strokeWidth=3;strokeColor=#0066cc;entryX=0.5;entryY=0;entryDx=0;entryDy=0;exitX=0.75;exitY=1;exitDx=0;exitDy=0;" parent="1" source="app1" target="router3" edge="1">
      <mxGeometry relative="1" as="geometry">
        <Array as="points">
          <mxPoint x="745" y="200" />
          <mxPoint x="890" y="200" />
        </Array>
      </mxGeometry>
    </mxCell>
    <mxCell id="config_bus" value="" style="rounded=0;whiteSpace=wrap;html=1;fillColor=none;strokeColor=#666666;strokeWidth=2;dashed=1;" parent="1" vertex="1">
      <mxGeometry x="400" y="440" width="230" height="20" as="geometry" />
    </mxCell>
    <mxCell id="conn7" style="edgeStyle=orthogonalEdgeStyle;rounded=0;orthogonalLoop=1;jettySize=auto;html=1;strokeWidth=2;strokeColor=#b85450;entryX=0.5;entryY=0;entryDx=0;entryDy=0;entryPerimeter=0;" parent="1" target="config1" edge="1">
      <mxGeometry relative="1" as="geometry">
        <mxPoint x="400" y="450" as="sourcePoint" />
        <Array as="points">
          <mxPoint x="380" y="450" />
          <mxPoint x="160" y="450" />
        </Array>
      </mxGeometry>
    </mxCell>
    <mxCell id="conn8" style="edgeStyle=orthogonalEdgeStyle;rounded=0;orthogonalLoop=1;jettySize=auto;html=1;strokeWidth=2;strokeColor=#b85450;entryX=0.5;entryY=0;entryDx=0;entryDy=0;entryPerimeter=0;" parent="1" target="config2" edge="1">
      <mxGeometry relative="1" as="geometry">
        <mxPoint x="400" y="450" as="sourcePoint" />
        <Array as="points">
          <mxPoint x="380" y="450" />
          <mxPoint x="260" y="450" />
        </Array>
      </mxGeometry>
    </mxCell>
    <mxCell id="conn9" style="edgeStyle=orthogonalEdgeStyle;rounded=0;orthogonalLoop=1;jettySize=auto;html=1;strokeWidth=2;strokeColor=#b85450;entryX=0.5;entryY=0;entryDx=0;entryDy=0;entryPerimeter=0;exitX=0;exitY=0.5;exitDx=0;exitDy=0;" parent="1" target="config3" edge="1" source="config_bus">
      <mxGeometry relative="1" as="geometry">
        <mxPoint x="380" y="390" as="sourcePoint" />
        <Array as="points">
          <mxPoint x="210" y="450" />
        </Array>
      </mxGeometry>
    </mxCell>
    <mxCell id="shard_bus" value="" style="rounded=0;whiteSpace=wrap;html=1;fillColor=none;strokeColor=#82b366;strokeWidth=3;dashed=1;" parent="1" vertex="1">
      <mxGeometry x="690" y="440" width="200" height="20" as="geometry" />
    </mxCell>
    <mxCell id="conn11" style="edgeStyle=orthogonalEdgeStyle;rounded=0;orthogonalLoop=1;jettySize=auto;html=1;strokeWidth=3;strokeColor=#82b366;entryX=0;entryY=0.5;entryDx=0;entryDy=0;entryPerimeter=0;" parent="1" target="shard1" edge="1">
      <mxGeometry relative="1" as="geometry">
        <mxPoint x="1000" y="460" as="sourcePoint" />
        <Array as="points">
          <mxPoint x="1000" y="580" />
        </Array>
      </mxGeometry>
    </mxCell>
    <mxCell id="conn12" style="edgeStyle=orthogonalEdgeStyle;rounded=0;orthogonalLoop=1;jettySize=auto;html=1;strokeWidth=3;strokeColor=#82b366;entryX=0;entryY=0.5;entryDx=0;entryDy=0;entryPerimeter=0;exitX=1;exitY=0.25;exitDx=0;exitDy=0;" parent="1" target="shard2" edge="1" source="shard_bus">
      <mxGeometry relative="1" as="geometry">
        <mxPoint x="1000" y="450" as="sourcePoint" />
        <Array as="points">
          <mxPoint x="1000" y="445" />
          <mxPoint x="1000" y="680" />
        </Array>
      </mxGeometry>
    </mxCell>
    <mxCell id="title1" value="Схема 1: MongoDB с шардированием (улучшенная версия)&#xa;Версия: 1.1 | Дата: 19.12.2024" style="text;html=1;strokeColor=none;fillColor=none;align=left;verticalAlign=top;whiteSpace=wrap;rounded=0;fontSize=16;fontStyle=1;" parent="1" vertex="1">
      <mxGeometry x="50" y="30" width="450" height="50" as="geometry" />
    </mxCell>
    <mxCell id="legend1" value="Легенда:&#xa;• Синий - Приложение (pymongo-api)&#xa;• Фиолетовый - Роутеры (mongos)&#xa;• Красный - Конфигурационные серверы&#xa;• Зеленый - Шарды для данных&#xa;• Пунктирные области - логические группы&#xa;• Толщина стрелок отражает интенсивность трафика" style="text;html=1;strokeColor=#666666;fillColor=#f5f5f5;align=left;verticalAlign=top;whiteSpace=wrap;rounded=1;fontSize=11;" parent="1" vertex="1">
      <mxGeometry x="50" y="120" width="320" height="120" as="geometry" />
    </mxCell>
    <mxCell id="sharding_info" value="Стратегия шардирования:&#xa;• Ключ: hashed(user_id)&#xa;• shard1: hash значения 0-50%&#xa;• shard2: hash значения 50-100%&#xa;• Равномерное распределение нагрузки&#xa;• Возможность добавления новых шардов" style="text;html=1;strokeColor=#82b366;fillColor=#d5e8d4;align=left;verticalAlign=top;whiteSpace=wrap;rounded=1;fontSize=11;" parent="1" vertex="1">
      <mxGeometry x="800" y="700" width="220" height="120" as="geometry" />
    </mxCell>
    <mxCell id="label1" value="Балансировка&#xa;нагрузки" style="text;html=1;strokeColor=none;fillColor=none;align=center;verticalAlign=middle;whiteSpace=wrap;rounded=0;fontSize=10;fontStyle=2;" parent="1" vertex="1">
      <mxGeometry x="670" y="165" width="80" height="30" as="geometry" />
    </mxCell>
    <mxCell id="label2" value="&lt;font style=&quot;font-size: 14px;&quot;&gt;Метаданные&lt;br&gt;кластера&lt;/font&gt;" style="text;html=1;strokeColor=none;fillColor=none;align=center;verticalAlign=middle;whiteSpace=wrap;rounded=0;fontSize=10;fontStyle=2;" parent="1" vertex="1">
      <mxGeometry x="475" y="480" width="80" height="30" as="geometry" />
    </mxCell>
    <mxCell id="label3" value="&lt;font style=&quot;font-size: 14px;&quot;&gt;Данные&lt;br&gt;пользователей&lt;/font&gt;" style="text;html=1;strokeColor=none;fillColor=none;align=center;verticalAlign=middle;whiteSpace=wrap;rounded=0;fontSize=10;fontStyle=2;" parent="1" vertex="1">
      <mxGeometry x="750" y="480" width="80" height="30" as="geometry" />
    </mxCell>
    <mxCell id="-05sG0Bi-hZpC2jNQhVa-3" value="" style="endArrow=classic;html=1;rounded=0;exitX=0.5;exitY=1;exitDx=0;exitDy=0;entryX=0.5;entryY=0;entryDx=0;entryDy=0;dashed=1;" edge="1" parent="1" source="router2" target="config_bus">
      <mxGeometry width="50" height="50" relative="1" as="geometry">
        <mxPoint x="630" y="340" as="sourcePoint" />
        <mxPoint x="640" y="520" as="targetPoint" />
      </mxGeometry>
    </mxCell>
    <mxCell id="-05sG0Bi-hZpC2jNQhVa-4" value="" style="endArrow=classic;html=1;rounded=0;exitX=0.5;exitY=1;exitDx=0;exitDy=0;dashed=1;entryX=0.5;entryY=0;entryDx=0;entryDy=0;" edge="1" parent="1" source="router1" target="config_bus">
      <mxGeometry width="50" height="50" relative="1" as="geometry">
        <mxPoint x="765" y="380" as="sourcePoint" />
        <mxPoint x="520" y="440" as="targetPoint" />
      </mxGeometry>
    </mxCell>
    <mxCell id="-05sG0Bi-hZpC2jNQhVa-6" value="" style="endArrow=classic;html=1;rounded=0;exitX=0.5;exitY=1;exitDx=0;exitDy=0;entryX=0.5;entryY=0;entryDx=0;entryDy=0;dashed=1;" edge="1" parent="1" source="router3" target="config_bus">
      <mxGeometry width="50" height="50" relative="1" as="geometry">
        <mxPoint x="895" y="380" as="sourcePoint" />
        <mxPoint x="700" y="510" as="targetPoint" />
      </mxGeometry>
    </mxCell>
    <mxCell id="-05sG0Bi-hZpC2jNQhVa-7" value="" style="endArrow=classic;html=1;rounded=0;exitX=0.5;exitY=1;exitDx=0;exitDy=0;entryX=0.5;entryY=0;entryDx=0;entryDy=0;fillColor=#60a917;strokeColor=light-dark(#2D7600, #446e2c);strokeWidth=3;" edge="1" parent="1" source="router1" target="shard_bus">
      <mxGeometry width="50" height="50" relative="1" as="geometry">
        <mxPoint x="590" y="570" as="sourcePoint" />
        <mxPoint x="640" y="520" as="targetPoint" />
      </mxGeometry>
    </mxCell>
    <mxCell id="-05sG0Bi-hZpC2jNQhVa-8" value="" style="endArrow=classic;html=1;rounded=0;exitX=0.5;exitY=1;exitDx=0;exitDy=0;entryX=0.5;entryY=0;entryDx=0;entryDy=0;fillColor=#60a917;strokeColor=light-dark(#2D7600, #446e2c);strokeWidth=3;" edge="1" parent="1" source="router2" target="shard_bus">
      <mxGeometry width="50" height="50" relative="1" as="geometry">
        <mxPoint x="700" y="400" as="sourcePoint" />
        <mxPoint x="1000" y="530" as="targetPoint" />
      </mxGeometry>
    </mxCell>
    <mxCell id="-05sG0Bi-hZpC2jNQhVa-9" value="" style="endArrow=classic;html=1;rounded=0;exitX=0.5;exitY=1;exitDx=0;exitDy=0;entryX=0.5;entryY=0;entryDx=0;entryDy=0;fillColor=#60a917;strokeColor=light-dark(#2D7600, #446e2c);strokeWidth=3;" edge="1" parent="1" source="router3" target="shard_bus">
      <mxGeometry width="50" height="50" relative="1" as="geometry">
        <mxPoint x="890" y="350" as="sourcePoint" />
        <mxPoint x="1190" y="480" as="targetPoint" />
      </mxGeometry>
    </mxCell>
  </root>
</mxGraphModel>
